<?xml version="1.0" standalone="no"?>
<!DOCTYPE svg PUBLIC "-//W3C//DTD SVG 20010904//EN"
 "http://www.w3.org/TR/2001/REC-SVG-20010904/DTD/svg10.dtd">
<svg version="1.0" xmlns="http://www.w3.org/2000/svg"
 width="512.000000pt" height="512.000000pt" viewBox="0 0 512.000000 512.000000"
 preserveAspectRatio="xMidYMid meet">

<g transform="translate(0.000000,512.000000) scale(0.100000,-0.100000)"
fill="#000000" stroke="none">
<path d="M2337 4742 l-649 -377 -639 -1265 c-351 -696 -639 -1274 -639 -1286
0 -11 8 -28 18 -36 19 -17 264 -160 303 -178 28 -13 -25 -42 594 325 679 403
765 453 769 446 3 -4 199 -470 435 -1036 237 -566 435 -1031 439 -1034 138
-94 465 -301 474 -301 21 0 1281 767 1296 789 12 17 -12 97 -193 653 -147 449
-213 638 -228 651 -16 15 -30 17 -66 12 -63 -9 -206 11 -299 40 -152 48 -312
167 -407 300 -264 372 -168 889 212 1142 28 19 54 41 57 48 3 8 -13 67 -34
132 -21 65 -113 346 -205 625 l-165 506 -199 111 c-108 61 -204 111 -212 110
-8 0 -306 -170 -662 -377z m841 178 c52 -29 90 -56 85 -60 -4 -4 -213 -126
-463 -271 -250 -144 -511 -295 -580 -335 l-125 -72 -75 41 c-41 22 -103 57
-137 77 l-61 35 591 342 591 342 41 -23 c22 -13 82 -47 133 -76z m-1275 -740
c111 -62 151 -90 159 -109 25 -68 1279 -3893 1276 -3896 -2 -1 -70 42 -153 95
l-149 97 -572 1369 c-315 753 -579 1382 -588 1397 -37 67 -27 79 -602 -703
-293 -399 -535 -725 -538 -725 -9 0 -206 117 -212 126 -6 10 1217 2439 1226
2435 3 -2 72 -41 153 -86z"/>
<path d="M4105 3410 c-115 -25 -198 -73 -277 -159 -103 -111 -150 -260 -130
-406 28 -197 167 -359 355 -416 98 -30 245 -24 338 15 133 54 248 180 289 314
27 87 27 218 0 304 -62 202 -244 343 -455 353 -44 2 -98 0 -120 -5z m267 -127
c41 -19 88 -52 119 -83 49 -49 51 -53 45 -93 -3 -23 -25 -80 -48 -127 -57
-118 -159 -220 -278 -279 -89 -43 -193 -71 -272 -71 -40 0 -50 4 -74 33 -15
17 -39 57 -53 87 -23 48 -26 68 -26 160 0 97 2 110 31 170 51 109 129 181 237
221 41 15 73 19 152 16 88 -2 108 -6 167 -34z"/>
</g>
</svg>
